<svg width="32" height="32" viewBox="0 0 32 32" fill="none" xmlns="http://www.w3.org/2000/svg">
<path opacity="0.4" d="M29.32 8.02669C29.3466 8.34669 29.32 8.68001 29.24 9.01335L24.7466 27.0533C24.4266 28.4 23.2267 29.3333 21.84 29.3333H4.31997C2.30663 29.3333 0.879989 27.36 1.46666 25.4267L7.07998 7.38664C7.46664 6.1333 8.62666 5.28003 9.93333 5.28003H26.3333C27.6133 5.28003 28.6533 6.04002 29.0933 7.10669C29.2267 7.38669 29.2933 7.70669 29.32 8.02669Z" fill="#D04B1E"/>
<path d="M30.6533 26.16C30.7866 27.88 29.4267 29.3333 27.7067 29.3333H21.84C23.2267 29.3333 24.4267 28.4 24.7467 27.0533L29.24 9.01335C29.32 8.68001 29.3466 8.34669 29.32 8.02669L29.3333 8L30.6533 26.16Z" fill="#D04B1E"/>
<path d="M12.9066 9.50668C12.8266 9.50668 12.7466 9.49332 12.6666 9.47999C12.1333 9.34665 11.8 8.81336 11.9333 8.26669L13.32 2.50668C13.4533 1.97335 13.9866 1.65336 14.5333 1.77336C15.0666 1.9067 15.4 2.43999 15.2667 2.98666L13.88 8.74667C13.7733 9.2 13.36 9.50668 12.9066 9.50668Z" fill="#D04B1E"/>
<path d="M21.84 9.51998C21.7733 9.51998 21.6933 9.51995 21.6267 9.49329C21.0933 9.37329 20.7467 8.83993 20.8534 8.3066L22.1067 2.51998C22.2267 1.97331 22.76 1.63996 23.2933 1.74662C23.8267 1.86662 24.1733 2.39998 24.0667 2.93331L22.8133 8.71993C22.72 9.19993 22.3067 9.51998 21.84 9.51998Z" fill="#D04B1E"/>
<path d="M20.9334 17H10.2667C9.72003 17 9.26669 16.5467 9.26669 16C9.26669 15.4533 9.72003 15 10.2667 15H20.9334C21.48 15 21.9334 15.4533 21.9334 16C21.9334 16.5467 21.48 17 20.9334 17Z" fill="#D04B1E"/>
<path d="M19.6 22.3333H8.93335C8.38668 22.3333 7.93335 21.88 7.93335 21.3333C7.93335 20.7867 8.38668 20.3333 8.93335 20.3333H19.6C20.1467 20.3333 20.6 20.7867 20.6 21.3333C20.6 21.88 20.1467 22.3333 19.6 22.3333Z" fill="#D04B1E"/>
</svg>
