<svg width="22" height="22" viewBox="0 0 22 22" fill="none" xmlns="http://www.w3.org/2000/svg">
<path opacity="0.4" d="M17.6367 5.11501H17.27L14.1717 2.01668C13.9242 1.76918 13.5208 1.76918 13.2642 2.01668C13.0167 2.26418 13.0167 2.66751 13.2642 2.92418L15.455 5.11501H6.545L8.73584 2.92418C8.98334 2.67668 8.98334 2.27335 8.73584 2.01668C8.48834 1.76918 8.085 1.76918 7.82834 2.01668L4.73917 5.11501H4.3725C3.5475 5.11501 1.83334 5.11501 1.83334 7.46168C1.83334 8.35085 2.01667 8.93751 2.40167 9.32251C2.62167 9.55168 2.8875 9.67085 3.17167 9.73501C3.4375 9.79918 3.72167 9.80835 3.99667 9.80835H18.0033C18.2875 9.80835 18.5533 9.79001 18.81 9.73501C19.58 9.55168 20.1667 9.00168 20.1667 7.46168C20.1667 5.11501 18.4525 5.11501 17.6367 5.11501Z" fill="#030504"/>
<path d="M18.0125 9.80833H3.99667C3.73084 9.80833 3.4375 9.79916 3.17167 9.72583L4.32667 16.775C4.58334 18.3517 5.27084 20.1667 8.32334 20.1667H13.4658C16.555 20.1667 17.105 18.6175 17.435 16.885L18.8192 9.72583C18.5625 9.79 18.2875 9.80833 18.0125 9.80833ZM11 16.9583C8.855 16.9583 7.10417 15.2075 7.10417 13.0625C7.10417 12.6867 7.41584 12.375 7.79167 12.375C8.1675 12.375 8.47917 12.6867 8.47917 13.0625C8.47917 14.4558 9.60667 15.5833 11 15.5833C12.3933 15.5833 13.5208 14.4558 13.5208 13.0625C13.5208 12.6867 13.8325 12.375 14.2083 12.375C14.5842 12.375 14.8958 12.6867 14.8958 13.0625C14.8958 15.2075 13.145 16.9583 11 16.9583Z" fill="#030504"/>
</svg>
