<svg width="32" height="32" viewBox="0 0 32 32" fill="none" xmlns="http://www.w3.org/2000/svg">
<path opacity="0.4" d="M16 29.3333C23.3638 29.3333 29.3333 23.3638 29.3333 16C29.3333 8.6362 23.3638 2.66666 16 2.66666C8.63619 2.66666 2.66666 8.6362 2.66666 16C2.66666 23.3638 8.63619 29.3333 16 29.3333Z" fill="#D04B1E"/>
<path d="M20.9467 21.24C20.7733 21.24 20.6 21.2 20.44 21.0933L16.3067 18.6267C15.28 18.0133 14.52 16.6667 14.52 15.48V10.0133C14.52 9.46667 14.9733 9.01334 15.52 9.01334C16.0667 9.01334 16.52 9.46667 16.52 10.0133V15.48C16.52 15.96 16.92 16.6667 17.3333 16.9067L21.4667 19.3733C21.9467 19.6533 22.0933 20.2667 21.8133 20.7467C21.6133 21.0667 21.28 21.24 20.9467 21.24Z" fill="#D04B1E"/>
</svg>
