<svg width="16" height="16" viewBox="0 0 16 16" fill="none" xmlns="http://www.w3.org/2000/svg">
<path opacity="0.4" d="M10.7934 1.33334H5.20671C2.78004 1.33334 1.33337 2.78001 1.33337 5.20668V10.7867C1.33337 13.22 2.78004 14.6667 5.20671 14.6667H10.7867C13.2134 14.6667 14.66 13.22 14.66 10.7933V5.20668C14.6667 2.78001 13.22 1.33334 10.7934 1.33334Z" fill="#D04B1E"/>
<path d="M9.50665 8L8.49998 7.64667V5.38667H8.73998C9.27998 5.38667 9.71998 5.86 9.71998 6.44C9.71998 6.71333 9.94665 6.94 10.22 6.94C10.4933 6.94 10.72 6.71333 10.72 6.44C10.72 5.30667 9.83331 4.38667 8.73998 4.38667H8.49998V4C8.49998 3.72667 8.27332 3.5 7.99998 3.5C7.72665 3.5 7.49998 3.72667 7.49998 4V4.38667H7.06665C6.07998 4.38667 5.27332 5.22 5.27332 6.24C5.27332 7.43333 5.96665 7.81333 6.49332 8L7.49998 8.35333V10.6067H7.25998C6.71998 10.6067 6.27998 10.1333 6.27998 9.55333C6.27998 9.28 6.05332 9.05333 5.77998 9.05333C5.50665 9.05333 5.27998 9.28 5.27998 9.55333C5.27998 10.6867 6.16665 11.6067 7.25998 11.6067H7.49998V12C7.49998 12.2733 7.72665 12.5 7.99998 12.5C8.27332 12.5 8.49998 12.2733 8.49998 12V11.6133H8.93332C9.91998 11.6133 10.7266 10.78 10.7266 9.76C10.72 8.56 10.0266 8.18 9.50665 8ZM6.82665 7.06C6.48665 6.94 6.27998 6.82667 6.27998 6.24667C6.27998 5.77333 6.63332 5.39333 7.07332 5.39333H7.50665V7.3L6.82665 7.06ZM8.93332 10.6133H8.49998V8.70667L9.17332 8.94C9.51332 9.06 9.71998 9.17333 9.71998 9.75333C9.71998 10.2267 9.36665 10.6133 8.93332 10.6133Z" fill="#D04B1E"/>
</svg>
