<svg width="33" height="32" viewBox="0 0 33 32" fill="none" xmlns="http://www.w3.org/2000/svg">
<path d="M25.8333 20C22.8867 20 20.5 22.3867 20.5 25.3333C20.5 26.3333 20.78 27.28 21.2734 28.08C22.1934 29.6267 23.8867 30.6667 25.8333 30.6667C27.78 30.6667 29.4733 29.6267 30.3933 28.08C30.8866 27.28 31.1667 26.3333 31.1667 25.3333C31.1667 22.3867 28.78 20 25.8333 20ZM28.5933 24.76L25.7533 27.3867C25.5667 27.56 25.3133 27.6533 25.0733 27.6533C24.82 27.6533 24.5667 27.56 24.3667 27.36L23.0466 26.04C22.66 25.6533 22.66 25.0133 23.0466 24.6267C23.4333 24.24 24.0733 24.24 24.46 24.6267L25.1 25.2667L27.2333 23.2933C27.6333 22.92 28.2733 22.9467 28.6466 23.3467C29.02 23.7467 28.9933 24.3733 28.5933 24.76Z" fill="#D04B1E"/>
<path d="M29.8333 10.0533V12H3.16667V10.0533C3.16667 6.99999 5.6467 4.53333 8.70004 4.53333H24.3C27.3533 4.53333 29.8333 6.99999 29.8333 10.0533Z" fill="#D04B1E"/>
<path opacity="0.4" d="M3.16667 12V21.9467C3.16667 25 5.63336 27.4667 8.68669 27.4667H17.0334C17.8067 27.4667 18.4733 26.8133 18.4067 26.04C18.22 24 18.8734 21.7867 20.6867 20.0267C21.4334 19.2933 22.3534 18.7333 23.3534 18.4133C25.02 17.88 26.6333 17.9467 28.06 18.4267C28.9266 18.72 29.8333 18.0933 29.8333 17.1733V12H3.16667ZM11.1667 23H8.50001C7.95334 23 7.50001 22.5467 7.50001 22C7.50001 21.4533 7.95334 21 8.50001 21H11.1667C11.7133 21 12.1667 21.4533 12.1667 22C12.1667 22.5467 11.7133 23 11.1667 23Z" fill="#D04B1E"/>
<path d="M12.1667 22C12.1667 22.5467 11.7133 23 11.1667 23H8.5C7.95333 23 7.5 22.5467 7.5 22C7.5 21.4533 7.95333 21 8.5 21H11.1667C11.7133 21 12.1667 21.4533 12.1667 22Z" fill="#D04B1E"/>
</svg>
