<svg width="20" height="21" viewBox="0 0 20 21" fill="none" xmlns="http://www.w3.org/2000/svg">
<path opacity="0.4" d="M18.325 5.51668C18.3416 5.71668 18.325 5.92501 18.275 6.13334L15.4667 17.4083C15.2667 18.25 14.5167 18.8333 13.65 18.8333H2.69998C1.44164 18.8333 0.549989 17.6 0.916656 16.3917L4.42498 5.11665C4.66665 4.33332 5.39166 3.80002 6.20833 3.80002H16.4583C17.2583 3.80002 17.9083 4.27501 18.1833 4.94168C18.2667 5.11668 18.3083 5.31668 18.325 5.51668Z" fill="#D04B1E"/>
<path d="M19.1583 16.85C19.2416 17.925 18.3917 18.8333 17.3167 18.8333H13.65C14.5167 18.8333 15.2667 18.25 15.4667 17.4083L18.275 6.13334C18.325 5.92501 18.3416 5.71668 18.325 5.51668L18.3333 5.5L19.1583 16.85Z" fill="#D04B1E"/>
<path d="M8.06663 6.44167C8.01663 6.44167 7.96664 6.43332 7.91664 6.42498C7.58331 6.34165 7.37498 6.00834 7.45832 5.66667L8.32497 2.06667C8.4083 1.73333 8.74164 1.53334 9.0833 1.60834C9.41664 1.69168 9.62498 2.02499 9.54165 2.36665L8.67498 5.96666C8.60831 6.24999 8.34997 6.44167 8.06663 6.44167Z" fill="#D04B1E"/>
<path d="M13.65 6.44999C13.6083 6.44999 13.5583 6.44997 13.5167 6.4333C13.1833 6.3583 12.9667 6.02496 13.0334 5.69163L13.8167 2.07499C13.8917 1.73332 14.225 1.52497 14.5583 1.59164C14.8917 1.66664 15.1083 1.99999 15.0417 2.33332L14.2583 5.94996C14.2 6.24996 13.9417 6.44999 13.65 6.44999Z" fill="#D04B1E"/>
<path d="M13.0834 11.125H6.41669C6.07502 11.125 5.79169 10.8417 5.79169 10.5C5.79169 10.1583 6.07502 9.875 6.41669 9.875H13.0834C13.425 9.875 13.7084 10.1583 13.7084 10.5C13.7084 10.8417 13.425 11.125 13.0834 11.125Z" fill="#D04B1E"/>
<path d="M12.25 14.4583H5.58334C5.24168 14.4583 4.95834 14.175 4.95834 13.8333C4.95834 13.4917 5.24168 13.2083 5.58334 13.2083H12.25C12.5917 13.2083 12.875 13.4917 12.875 13.8333C12.875 14.175 12.5917 14.4583 12.25 14.4583Z" fill="#D04B1E"/>
</svg>
