<svg width="25" height="24" viewBox="0 0 25 24" fill="none" xmlns="http://www.w3.org/2000/svg">
<path d="M7.5 5.75C7.09 5.75 6.75 5.41 6.75 5V2C6.75 1.59 7.09 1.25 7.5 1.25C7.91 1.25 8.25 1.59 8.25 2V5C8.25 5.41 7.91 5.75 7.5 5.75Z" fill="white"/>
<path d="M15.5 5.75C15.09 5.75 14.75 5.41 14.75 5V2C14.75 1.59 15.09 1.25 15.5 1.25C15.91 1.25 16.25 1.59 16.25 2V5C16.25 5.41 15.91 5.75 15.5 5.75Z" fill="white"/>
<path opacity="0.4" d="M20.5 8.5V17C20.5 20 19 22 15.5 22H7.5C4 22 2.5 20 2.5 17V8.5C2.5 5.5 4 3.5 7.5 3.5H15.5C19 3.5 20.5 5.5 20.5 8.5Z" fill="white"/>
<path d="M13.5 11.75H7.5C7.09 11.75 6.75 11.41 6.75 11C6.75 10.59 7.09 10.25 7.5 10.25H13.5C13.91 10.25 14.25 10.59 14.25 11C14.25 11.41 13.91 11.75 13.5 11.75Z" fill="white"/>
<path d="M10.5 16.75H7.5C7.09 16.75 6.75 16.41 6.75 16C6.75 15.59 7.09 15.25 7.5 15.25H10.5C10.91 15.25 11.25 15.59 11.25 16C11.25 16.41 10.91 16.75 10.5 16.75Z" fill="white"/>
<path d="M21.5 13.63C20.61 12.92 19.48 12.5 18.25 12.5C17.02 12.5 15.87 12.93 14.97 13.66C13.76 14.61 13 16.1 13 17.75C13 18.73 13.28 19.67 13.76 20.45C14.13 21.06 14.61 21.59 15.18 22C16.04 22.63 17.1 23 18.25 23C19.58 23 20.78 22.51 21.7 21.69C22.11 21.35 22.46 20.93 22.74 20.45C23.22 19.67 23.5 18.73 23.5 17.75C23.5 16.08 22.72 14.59 21.5 13.63ZM18.25 20.25C18.25 18.87 17.13 17.75 15.75 17.75C17.13 17.75 18.25 16.63 18.25 15.25C18.25 16.63 19.37 17.75 20.75 17.75C19.37 17.75 18.25 18.87 18.25 20.25Z" fill="white"/>
</svg>
