<svg width="32" height="32" viewBox="0 0 32 32" fill="none" xmlns="http://www.w3.org/2000/svg">
<rect width="32" height="32" rx="16" fill="#D04B1E"/>
<path d="M22.0466 11.4867C20.9733 11.38 19.8999 11.3 18.8199 11.24V11.2333L18.6733 10.3667C18.5733 9.75334 18.4266 8.83334 16.8666 8.83334H15.1199C13.5666 8.83334 13.4199 9.71334 13.3133 10.36L13.1733 11.2133C12.5533 11.2533 11.9333 11.2933 11.3133 11.3533L9.95328 11.4867C9.67328 11.5133 9.47328 11.76 9.49994 12.0333C9.52661 12.3067 9.76661 12.5067 10.0466 12.48L11.4066 12.3467C14.8999 12 18.4199 12.1333 21.9533 12.4867C21.9733 12.4867 21.9866 12.4867 22.0066 12.4867C22.2599 12.4867 22.4799 12.2933 22.5066 12.0333C22.5266 11.76 22.3266 11.5133 22.0466 11.4867Z" fill="white"/>
<path opacity="0.3991" d="M20.82 13.4267C20.66 13.26 20.44 13.1667 20.2134 13.1667H11.7867C11.56 13.1667 11.3334 13.26 11.18 13.4267C11.0267 13.5933 10.94 13.82 10.9534 14.0533L11.3667 20.8933C11.44 21.9067 11.5334 23.1733 13.86 23.1733H18.14C20.4667 23.1733 20.56 21.9133 20.6334 20.8933L21.0467 14.06C21.06 13.82 20.9734 13.5933 20.82 13.4267Z" fill="white"/>
<path fill-rule="evenodd" clip-rule="evenodd" d="M14.3867 19.3333C14.3867 19.0572 14.6106 18.8333 14.8867 18.8333H17.1067C17.3829 18.8333 17.6067 19.0572 17.6067 19.3333C17.6067 19.6095 17.3829 19.8333 17.1067 19.8333H14.8867C14.6106 19.8333 14.3867 19.6095 14.3867 19.3333Z" fill="white"/>
<path fill-rule="evenodd" clip-rule="evenodd" d="M13.8334 16.6667C13.8334 16.3905 14.0572 16.1667 14.3334 16.1667H17.6667C17.9429 16.1667 18.1667 16.3905 18.1667 16.6667C18.1667 16.9428 17.9429 17.1667 17.6667 17.1667H14.3334C14.0572 17.1667 13.8334 16.9428 13.8334 16.6667Z" fill="white"/>
</svg>
