<svg width="71" height="70" viewBox="0 0 71 70" fill="none" xmlns="http://www.w3.org/2000/svg">
<path d="M64.6666 17.5V24.5584C64.6666 29.1667 61.75 32.0834 57.1416 32.0834H47.1666V11.6959C47.1666 8.45837 49.8208 5.83337 53.0583 5.83337C56.2375 5.86254 59.1541 7.14587 61.2541 9.24587C63.3541 11.375 64.6666 14.2917 64.6666 17.5Z" fill="white"/>
<path opacity="0.4" d="M6.33331 20.4167V61.25C6.33331 63.6709 9.075 65.0417 11 63.5834L15.9875 59.85C17.1541 58.975 18.7875 59.0917 19.8375 60.1417L24.6791 65.0125C25.8166 66.15 27.6833 66.15 28.8208 65.0125L33.7208 60.1125C34.7416 59.0917 36.375 58.975 37.5125 59.85L42.5 63.5834C44.425 65.0125 47.1666 63.6417 47.1666 61.25V11.6667C47.1666 8.45837 49.7916 5.83337 53 5.83337H20.9166H18C9.24998 5.83337 6.33331 11.0542 6.33331 17.5V20.4167Z" fill="white"/>
<path d="M35.5 28.4375H18C16.8042 28.4375 15.8125 27.4458 15.8125 26.25C15.8125 25.0542 16.8042 24.0625 18 24.0625H35.5C36.6958 24.0625 37.6875 25.0542 37.6875 26.25C37.6875 27.4458 36.6958 28.4375 35.5 28.4375Z" fill="white"/>
<path d="M33.3125 40.1041H20.1875C18.9917 40.1041 18 39.1125 18 37.9166C18 36.7208 18.9917 35.7291 20.1875 35.7291H33.3125C34.5083 35.7291 35.5 36.7208 35.5 37.9166C35.5 39.1125 34.5083 40.1041 33.3125 40.1041Z" fill="white"/>
</svg>
