<svg width="51" height="50" viewBox="0 0 51 50" fill="none" xmlns="http://www.w3.org/2000/svg">
<path d="M46.3334 12.5V17.5416C46.3334 20.8333 44.25 22.9166 40.9584 22.9166H33.8334V8.35413C33.8334 6.04163 35.7292 4.16663 38.0417 4.16663C40.3125 4.18746 42.3959 5.10413 43.8959 6.60413C45.3959 8.12496 46.3334 10.2083 46.3334 12.5Z" fill="#030504"/>
<path opacity="0.4" d="M4.66663 14.5833V43.75C4.66663 45.4791 6.62497 46.4583 7.99997 45.4166L11.5625 42.75C12.3958 42.125 13.5625 42.2083 14.3125 42.9583L17.7708 46.4375C18.5833 47.25 19.9166 47.25 20.7291 46.4375L24.2291 42.9375C24.9583 42.2083 26.125 42.125 26.9375 42.75L30.4999 45.4166C31.8749 46.4375 33.8333 45.4583 33.8333 43.75V8.33329C33.8333 6.04163 35.7083 4.16663 38 4.16663H15.0833H13C6.74996 4.16663 4.66663 7.89579 4.66663 12.5V14.5833Z" fill="#030504"/>
<path d="M25.5 20.3125H13C12.1458 20.3125 11.4375 19.6042 11.4375 18.75C11.4375 17.8958 12.1458 17.1875 13 17.1875H25.5C26.3542 17.1875 27.0625 17.8958 27.0625 18.75C27.0625 19.6042 26.3542 20.3125 25.5 20.3125Z" fill="#030504"/>
<path d="M23.9375 28.6459H14.5625C13.7083 28.6459 13 27.9375 13 27.0834C13 26.2292 13.7083 25.5209 14.5625 25.5209H23.9375C24.7917 25.5209 25.5 26.2292 25.5 27.0834C25.5 27.9375 24.7917 28.6459 23.9375 28.6459Z" fill="#030504"/>
</svg>
