<svg width="23" height="22" viewBox="0 0 23 22" fill="none" xmlns="http://www.w3.org/2000/svg">
<path d="M20.8334 5.50004V7.71837C20.8334 9.16671 19.9167 10.0834 18.4684 10.0834H15.3334V3.67587C15.3334 2.65837 16.1675 1.83337 17.185 1.83337C18.1842 1.84254 19.1009 2.24587 19.7609 2.90587C20.4209 3.57504 20.8334 4.49171 20.8334 5.50004Z" fill="white"/>
<path opacity="0.4" d="M2.5 6.41671V19.25C2.5 20.0109 3.36167 20.4417 3.96667 19.9834L5.53416 18.81C5.90083 18.535 6.41417 18.5717 6.74417 18.9017L8.26583 20.4325C8.62333 20.79 9.21001 20.79 9.56751 20.4325L11.1075 18.8925C11.4283 18.5717 11.9417 18.535 12.2992 18.81L13.8667 19.9834C14.4717 20.4325 15.3333 20.0017 15.3333 19.25V3.66671C15.3333 2.65837 16.1583 1.83337 17.1667 1.83337H7.08333H6.16667C3.41667 1.83337 2.5 3.47421 2.5 5.50004V6.41671Z" fill="white"/>
<path d="M11.6667 8.9375H6.16669C5.79085 8.9375 5.47919 8.62583 5.47919 8.25C5.47919 7.87417 5.79085 7.5625 6.16669 7.5625H11.6667C12.0425 7.5625 12.3542 7.87417 12.3542 8.25C12.3542 8.62583 12.0425 8.9375 11.6667 8.9375Z" fill="white"/>
<path d="M10.9792 12.6041H6.85419C6.47835 12.6041 6.16669 12.2925 6.16669 11.9166C6.16669 11.5408 6.47835 11.2291 6.85419 11.2291H10.9792C11.355 11.2291 11.6667 11.5408 11.6667 11.9166C11.6667 12.2925 11.355 12.6041 10.9792 12.6041Z" fill="white"/>
</svg>
