<svg width="70" height="70" viewBox="0 0 70 70" fill="none" xmlns="http://www.w3.org/2000/svg">
<path d="M56.3792 16.5667L38.0917 6.70834C36.1667 5.65834 33.8333 5.65834 31.9083 6.70834L13.6208 16.5667C12.2792 17.2958 11.4625 18.6958 11.4625 20.3C11.4625 21.875 12.2792 23.3042 13.6208 24.0333L31.9083 33.8917C32.8708 34.4167 33.95 34.6792 35 34.6792C36.05 34.6792 37.1292 34.4167 38.0917 33.8917L56.3792 24.0333C57.7208 23.3042 58.5375 21.9042 58.5375 20.3C58.5375 18.6958 57.7208 17.2958 56.3792 16.5667Z" fill="white"/>
<path opacity="0.4" d="M28.9042 37.3042L11.8708 28.7875C10.5583 28.1458 9.04167 28.2042 7.81667 28.9625C6.5625 29.75 5.83334 31.0625 5.83334 32.5208V48.5917C5.83334 51.3625 7.37917 53.8708 9.85834 55.125L26.8625 63.6417C27.4458 63.9333 28.0875 64.0792 28.7292 64.0792C29.4875 64.0792 30.2458 63.875 30.9167 63.4667C32.1708 62.7083 32.9 61.3667 32.9 59.9083V43.8375C32.9292 41.0375 31.3833 38.5292 28.9042 37.3042Z" fill="white"/>
<path opacity="0.4" d="M62.1833 28.9625C60.9292 28.2042 59.4125 28.1167 58.1292 28.7875L41.125 37.3042C38.6458 38.5583 37.1 41.0375 37.1 43.8375V59.9083C37.1 61.3667 37.8292 62.7083 39.0833 63.4667C39.7542 63.875 40.5125 64.0792 41.2708 64.0792C41.9125 64.0792 42.5542 63.9333 43.1375 63.6417L60.1417 55.125C62.6208 53.8708 64.1667 51.3917 64.1667 48.5917V32.5208C64.1667 31.0625 63.4375 29.75 62.1833 28.9625Z" fill="white"/>
</svg>
