<svg width="24" height="24" viewBox="0 0 24 24" fill="none" xmlns="http://www.w3.org/2000/svg">
<path opacity="0.4" d="M20.62 8.45C19.57 3.83 15.54 1.75 12 1.75C12 1.75 12 1.75 11.99 1.75C8.46 1.75 4.42 3.82 3.37 8.44C2.2 13.6 5.36 17.97 8.22 20.72C9.28 21.74 10.64 22.25 12 22.25C13.36 22.25 14.72 21.74 15.77 20.72C18.63 17.97 21.79 13.61 20.62 8.45Z" fill="#D04B1E"/>
<path d="M12 13.4599C13.7397 13.4599 15.15 12.0496 15.15 10.3099C15.15 8.57022 13.7397 7.15991 12 7.15991C10.2603 7.15991 8.85001 8.57022 8.85001 10.3099C8.85001 12.0496 10.2603 13.4599 12 13.4599Z" fill="#D04B1E"/>
</svg>
