<svg width="70" height="70" viewBox="0 0 70 70" fill="none" xmlns="http://www.w3.org/2000/svg">
<path d="M64.1667 17.5V24.5584C64.1667 29.1667 61.25 32.0834 56.6416 32.0834H46.6667V11.6959C46.6667 8.45837 49.3208 5.83337 52.5583 5.83337C55.7375 5.86254 58.6542 7.14587 60.7542 9.24587C62.8542 11.375 64.1667 14.2917 64.1667 17.5Z" fill="white"/>
<path opacity="0.4" d="M5.83334 20.4167V61.25C5.83334 63.6709 8.57503 65.0417 10.5 63.5834L15.4875 59.85C16.6542 58.975 18.2875 59.0917 19.3375 60.1417L24.1792 65.0125C25.3167 66.15 27.1834 66.15 28.3209 65.0125L33.2208 60.1125C34.2417 59.0917 35.875 58.975 37.0125 59.85L42 63.5834C43.925 65.0125 46.6667 63.6417 46.6667 61.25V11.6667C46.6667 8.45837 49.2917 5.83337 52.5 5.83337H20.4167H17.5C8.75001 5.83337 5.83334 11.0542 5.83334 17.5V20.4167Z" fill="white"/>
<path d="M35 28.4375H17.5C16.3042 28.4375 15.3125 27.4458 15.3125 26.25C15.3125 25.0542 16.3042 24.0625 17.5 24.0625H35C36.1958 24.0625 37.1875 25.0542 37.1875 26.25C37.1875 27.4458 36.1958 28.4375 35 28.4375Z" fill="white"/>
<path d="M32.8125 40.1041H19.6875C18.4917 40.1041 17.5 39.1125 17.5 37.9166C17.5 36.7208 18.4917 35.7291 19.6875 35.7291H32.8125C34.0083 35.7291 35 36.7208 35 37.9166C35 39.1125 34.0083 40.1041 32.8125 40.1041Z" fill="white"/>
</svg>
