<svg width="40" height="41" viewBox="0 0 40 41" fill="none" xmlns="http://www.w3.org/2000/svg">
<rect x="0.5" y="1" width="39" height="39" rx="19.5" stroke="#E4E5E9"/>
<path opacity="0.4" d="M27.7092 15.8799V18.4833L15.7833 27.2283L13.3725 25.4224C12.7767 24.9733 12.2908 24.0108 12.2908 23.2683V15.8799C12.2908 14.8533 13.0792 13.7166 14.0417 13.3591L19.0558 11.4799C19.5783 11.2874 20.4217 11.2874 20.9442 11.4799L25.9583 13.3591C26.9208 13.7166 27.7092 14.8533 27.7092 15.8799Z" fill="#030504"/>
<path d="M27.7092 19.7391V23.2683C27.7092 24.0108 27.2233 24.9733 26.6275 25.4225L21.6133 29.1716C21.1733 29.5016 20.5867 29.6666 20 29.6666C19.4133 29.6666 18.8267 29.5016 18.3867 29.1716L16.6267 27.8608L27.7092 19.7391Z" fill="#030504"/>
</svg>
