<svg width="32" height="32" viewBox="0 0 32 32" fill="none" xmlns="http://www.w3.org/2000/svg">
<path opacity="0.4" d="M12.56 2.88004L5.22666 5.62671C3.82666 6.14671 2.67999 7.81337 2.67999 9.3067V20.1067C2.67999 21.1867 3.38667 22.6134 4.25334 23.2534L11.5867 28.7334C12.88 29.7067 15 29.7067 16.2933 28.7334L23.6267 23.2534C24.4933 22.6 25.2 21.1867 25.2 20.1067V9.3067C25.2 7.81337 24.0533 6.14671 22.6533 5.62671L15.32 2.88004C14.56 2.60004 13.32 2.60004 12.56 2.88004Z" fill="white"/>
<path d="M25.68 9.01331H16.5467C16.28 9.01331 16.0267 9.02665 15.7867 9.02665C13.4933 9.15999 12.88 9.99999 12.88 12.6133V13.3833C12.88 13.7975 13.2158 14.1333 13.63 14.1333H28.5833C28.9975 14.1333 29.3333 13.7975 29.3333 13.3833V12.6133C29.3333 9.73332 28.6 9.01331 25.68 9.01331Z" fill="white"/>
<path d="M13.6433 15.6C13.2291 15.6 12.8933 15.9358 12.8933 16.35V19.3866C12.8933 22.2666 13.6267 23 16.5467 23H25.68C28.5467 23 29.3067 22.3067 29.3333 19.5467V16.35C29.3333 15.9358 28.9975 15.6 28.5833 15.6H13.6433ZM17.6933 20.6266H16.0267C15.6267 20.6266 15.3067 20.3066 15.3067 19.9066C15.3067 19.5066 15.6267 19.1866 16.0267 19.1866H17.6933C18.0933 19.1866 18.4133 19.5066 18.4133 19.9066C18.4133 20.3066 18.0933 20.6266 17.6933 20.6266ZM23.0933 20.6266H19.7733C19.3733 20.6266 19.0533 20.3066 19.0533 19.9066C19.0533 19.5066 19.3733 19.1866 19.7733 19.1866H23.0933C23.4933 19.1866 23.8133 19.5066 23.8133 19.9066C23.8267 20.3066 23.4933 20.6266 23.0933 20.6266Z" fill="white"/>
</svg>
