<svg width="33" height="32" viewBox="0 0 33 32" fill="none" xmlns="http://www.w3.org/2000/svg">
<path opacity="0.4" d="M14.8333 3.26667C15.7533 2.48 17.26 2.48 18.1933 3.26667L20.3 5.08C20.7 5.42667 21.4467 5.70667 21.98 5.70667H24.2467C25.66 5.70667 26.82 6.86667 26.82 8.28V10.5467C26.82 11.0667 27.1 11.8267 27.4467 12.2267L29.26 14.3333C30.0467 15.2533 30.0467 16.76 29.26 17.6933L27.4467 19.8C27.1 20.2 26.82 20.9467 26.82 21.48V23.7467C26.82 25.16 25.66 26.32 24.2467 26.32H21.98C21.46 26.32 20.7 26.6 20.3 26.9467L18.1933 28.76C17.2733 29.5467 15.7667 29.5467 14.8333 28.76L12.7267 26.9467C12.3267 26.6 11.58 26.32 11.0467 26.32H8.74001C7.32667 26.32 6.16667 25.16 6.16667 23.7467V21.4667C6.16667 20.9467 5.88667 20.2 5.55334 19.8L3.75334 17.68C2.98001 16.76 2.98001 15.2667 3.75334 14.3467L5.55334 12.2267C5.88667 11.8267 6.16667 11.08 6.16667 10.56V8.26667C6.16667 6.85333 7.32667 5.69333 8.74001 5.69333H11.0467C11.5667 5.69333 12.3267 5.41333 12.7267 5.06667L14.8333 3.26667Z" fill="#0CA024"/>
<path d="M14.8867 20.2267C14.62 20.2267 14.3667 20.12 14.18 19.9333L10.9533 16.7067C10.5667 16.32 10.5667 15.68 10.9533 15.2933C11.34 14.9067 11.98 14.9067 12.3667 15.2933L14.8867 17.8133L20.62 12.08C21.0067 11.6933 21.6467 11.6933 22.0333 12.08C22.42 12.4667 22.42 13.1067 22.0333 13.4933L15.5933 19.9333C15.4067 20.12 15.1533 20.2267 14.8867 20.2267Z" fill="#0CA024"/>
</svg>
